<?xml version="1.0" standalone="no"?>
<!DOCTYPE svg PUBLIC "-//W3C//DTD SVG 20010904//EN"
 "http://www.w3.org/TR/2001/REC-SVG-20010904/DTD/svg10.dtd">
<svg version="1.0" xmlns="http://www.w3.org/2000/svg"
 width="260.000000pt" height="165.000000pt" viewBox="0 0 260.000000 165.000000"
 preserveAspectRatio="xMidYMid meet">

<g transform="translate(0.000000,165.000000) scale(0.100000,-0.100000)"
fill="#000000" stroke="none">
<path d="M827 1454 c-53 -104 -98 -188 -106 -198 -4 -6 -48 -87 -96 -181 -49
-93 -96 -183 -104 -200 -9 -16 -22 -41 -27 -55 l-11 -25 113 0 114 0 71 133
c39 72 74 132 77 132 4 0 14 -15 21 -32 8 -18 50 -99 94 -180 l79 -148 114 0
115 0 -16 33 c-9 17 -20 40 -26 50 -5 9 -32 61 -61 115 -28 53 -79 149 -113
212 -34 63 -93 174 -130 245 -37 72 -71 134 -76 139 -4 5 -19 -13 -32 -40z"/>
<path d="M517 653 c-4 -3 -7 -37 -7 -75 0 -54 3 -68 15 -68 11 0 15 12 15 45
0 56 12 58 33 5 8 -22 21 -40 27 -40 6 0 19 18 28 40 9 22 20 40 25 40 4 0 7
-20 7 -45 0 -33 4 -45 15 -45 12 0 15 15 15 75 0 68 -2 75 -20 75 -14 0 -27
-14 -42 -45 -12 -25 -25 -45 -28 -45 -3 0 -16 20 -28 45 -20 42 -39 55 -55 38z"/>
<path d="M890 645 c0 -11 11 -15 40 -15 22 0 40 -3 40 -6 0 -3 -18 -26 -40
-51 -22 -25 -40 -50 -40 -54 0 -5 29 -9 65 -9 37 0 65 4 65 10 0 6 -18 10 -40
10 -22 0 -40 3 -40 6 0 4 18 26 40 50 58 63 54 74 -25 74 -51 0 -65 -3 -65
-15z"/>
<path d="M1084 648 c-22 -10 -44 -47 -44 -73 0 -8 10 -26 23 -40 25 -30 85
-37 113 -14 74 61 -5 170 -92 127z m74 -30 c16 -16 15 -50 -2 -73 -12 -16 -19
-18 -43 -10 -50 18 -41 95 11 95 12 0 27 -5 34 -12z"/>
<path d="M1237 653 c-4 -3 -7 -37 -7 -75 0 -61 2 -68 20 -68 17 0 20 7 20 47
l0 46 36 -46 c53 -68 64 -63 64 28 0 60 -3 75 -15 75 -11 0 -15 -12 -15 -51
l0 -52 -37 52 c-36 48 -52 59 -66 44z"/>
<path d="M1410 585 c0 -68 2 -75 20 -75 18 0 20 7 20 75 0 68 -2 75 -20 75
-18 0 -20 -7 -20 -75z"/>
<path d="M2153 585 c0 -44 2 -61 4 -37 2 23 2 59 0 80 -2 20 -4 1 -4 -43z"/>
<path d="M2220 653 c0 -6 8 -17 18 -24 16 -13 16 -13 2 6 -8 11 -16 22 -17 24
-2 2 -3 0 -3 -6z"/>
<path d="M2330 595 c0 -37 -4 -65 -10 -65 -5 0 -10 4 -10 8 0 4 -14 23 -30 42
-27 30 -26 28 6 -17 20 -29 40 -53 45 -53 5 0 9 34 9 75 0 41 -2 75 -5 75 -3
0 -5 -29 -5 -65z"/>
<path d="M2390 585 c0 -41 4 -75 8 -75 4 0 6 15 4 34 -4 34 -4 35 39 39 l44 4
-42 1 c-40 2 -43 4 -43 31 0 28 2 30 48 34 l47 3 -52 2 -53 2 0 -75z"/>
<path d="M368 589 c-18 -35 -34 -67 -36 -71 -2 -5 5 -8 15 -8 12 0 26 14 37
37 l18 38 19 -38 c12 -23 27 -37 38 -37 17 0 15 8 -17 68 -19 37 -36 69 -38
71 -1 1 -18 -26 -36 -60z"/>
<path d="M756 581 c-31 -61 -34 -71 -19 -71 10 0 24 13 31 30 8 17 18 30 23
30 4 0 15 -13 24 -30 9 -17 24 -30 34 -30 17 0 15 8 -17 68 -19 37 -36 69 -38
71 -1 1 -19 -29 -38 -68z"/>
<path d="M2033 580 c0 -41 2 -58 4 -37 2 20 2 54 0 75 -2 20 -4 3 -4 -38z"/>
<path d="M1515 583 c-40 -75 -39 -73 -17 -73 12 0 24 11 32 30 7 17 16 30 21
30 5 0 15 -13 24 -30 9 -17 24 -30 34 -30 17 0 15 7 -16 65 -19 36 -37 65 -41
65 -4 0 -20 -26 -37 -57z"/>
<path d="M1180 461 c0 -23 79 -132 140 -192 219 -218 527 -269 810 -132 79 38
107 59 180 132 47 47 98 110 113 139 l28 52 -117 0 -116 0 -62 -57 c-199 -186
-482 -188 -678 -4 l-67 62 -116 2 c-63 1 -115 0 -115 -2z"/>
</g>
</svg>
