<svg xmlns:xlink="http://www.w3.org/1999/xlink" xmlns="http://www.w3.org/2000/svg" width="176" height="24"
  viewBox="0 0 176 24" fill="none">
  <path
    d="M10.5625 21.1249C16.3959 21.1249 21.1249 16.3959 21.1249 10.5625C21.1249 4.72897 16.3959 0 10.5625 0C4.72897 0 0 4.72897 0 10.5625C0 16.3959 4.72897 21.1249 10.5625 21.1249Z"
    fill="#FC8001" />
  <path
    d="M10.582 0.587769C5.70857 0.587769 1.75592 4.54042 1.75592 9.41389C1.75592 9.88899 1.7951 10.3567 1.86612 10.8098C3.00735 7.8294 6.1249 5.68654 9.79347 5.68654C12.8571 5.68654 15.5363 7.18042 17.0008 9.40899C17.0106 9.40899 17.018 9.40899 17.0278 9.40899C17.9755 9.40899 18.7739 9.71022 19.3665 10.2245C19.391 9.95756 19.4057 9.68573 19.4057 9.41144C19.4057 4.53797 15.4555 0.587769 10.582 0.587769Z"
    fill="#FDCC01" />
  <path
    d="M19.369 10.2245C18.7739 9.70777 17.978 9.409 17.0302 9.409C17.0204 9.409 17.0131 9.409 17.0033 9.409C14.4073 9.42369 11.6743 11.6792 10.8931 14.4612C10.4767 15.9429 10.6971 17.2751 11.3853 18.2008C11.1208 18.2253 10.8539 18.24 10.582 18.24C6.18367 18.24 2.53714 15.0221 1.86857 10.8098C1.56734 11.5959 1.40326 12.4384 1.40326 13.3176C1.40326 15.4776 2.3902 17.4245 3.97714 18.8131C4.95673 19.5943 6.07591 20.2065 7.29305 20.6033C8.32407 20.9388 9.42367 21.1225 10.5649 21.1225C13.7314 21.1225 16.5698 19.7265 18.5045 17.52C19.1706 16.7584 19.7314 15.9037 20.16 14.9731C20.2237 14.8041 20.28 14.6351 20.3265 14.4612C20.8237 12.6882 20.4073 11.1257 19.369 10.2245Z"
    fill="#FD0024" />
  <path
    d="M76.7045 9.72738V18.4262C76.7045 18.5143 76.6334 18.5853 76.5453 18.5853H74.5126C74.4245 18.5853 74.3535 18.5143 74.3535 18.4262V10.489C74.3535 7.97881 72.9771 6.49962 70.609 6.49962C68.3559 6.49962 66.5926 8.06452 66.5926 10.5453V18.4262C66.5926 18.5143 66.5216 18.5853 66.4334 18.5853H64.4008C64.3126 18.5853 64.2416 18.5143 64.2416 18.4262V10.489C64.2416 7.97881 62.8653 6.49962 60.4971 6.49962C58.3028 6.49962 56.4661 8.00574 56.4661 10.5453V18.4262C56.4661 18.5143 56.3951 18.5853 56.3069 18.5853H54.2889C54.2008 18.5853 54.1298 18.5143 54.1298 18.4262V4.72166C54.1298 4.6335 54.2008 4.56248 54.2889 4.56248H56.2922C56.3804 4.56248 56.4514 4.6335 56.4514 4.72166V5.88982C56.4514 6.03676 56.6326 6.10533 56.7281 5.99513C57.8473 4.72411 59.4612 4.2735 60.9134 4.2735C63.1126 4.2735 64.871 5.20901 65.8138 6.77391C65.8775 6.87921 66.0245 6.87921 66.0881 6.77391C67.2367 4.89554 69.2522 4.2735 71.0302 4.2735C74.3951 4.27595 76.7045 6.45554 76.7045 9.72738Z"
    fill="black" />
  <path
    d="M93.1861 11.378C93.1861 15.4947 90.1885 18.48 86.3706 18.48C84.3943 18.48 82.8906 17.7796 81.8375 16.6751C81.7396 16.5723 81.5657 16.6457 81.5657 16.7878V23.7723C81.5657 23.8604 81.4947 23.9314 81.4065 23.9314H79.3886C79.3004 23.9314 79.2294 23.8604 79.2294 23.7723V4.7241C79.2294 4.63594 79.3004 4.56492 79.3886 4.56492H81.4065C81.4947 4.56492 81.5657 4.63594 81.5657 4.7241V5.96818C81.5657 6.11022 81.7396 6.1837 81.8375 6.08084C82.893 4.9788 84.3967 4.27594 86.3706 4.27594C90.1861 4.27594 93.1861 7.26124 93.1861 11.378ZM81.4212 11.378C81.4212 14.1747 83.3437 16.2857 86.0987 16.2857C88.9249 16.2857 90.7763 14.0914 90.7763 11.378C90.7763 8.66696 88.8832 6.48492 86.0987 6.48492C83.3437 6.48492 81.4212 8.59349 81.4212 11.378Z"
    fill="black" />
  <path
    d="M119.691 7.44243C119.647 7.52324 119.547 7.54773 119.469 7.49875C118.57 6.93549 116.919 6.32814 115.22 6.32814C113.353 6.32814 112.149 7.11671 112.149 8.351C112.149 9.44079 113.138 9.94283 114.789 10.1437L116.368 10.3445C119.265 10.7314 120.975 11.951 120.975 14.2041C120.975 16.8 118.651 18.48 114.936 18.48C113.295 18.48 111.091 18.0955 109.318 16.8196C109.249 16.7706 109.232 16.6726 109.276 16.6016L110.194 15.1273C110.243 15.049 110.349 15.0294 110.425 15.0832C111.429 15.8253 112.771 16.4277 114.95 16.4277C117.189 16.4277 118.565 15.6955 118.565 14.3485C118.565 13.3445 117.676 12.7126 115.824 12.4824L114.247 12.2963C111.191 11.9241 109.714 10.5453 109.714 8.48079C109.714 5.87018 111.882 4.29059 115.195 4.29059C117.282 4.29059 119.192 4.82937 120.509 5.68651C120.58 5.73304 120.602 5.8261 120.561 5.89957L119.691 7.44243Z"
    fill="black" />
  <path
    d="M131.657 7.44243C131.613 7.52324 131.513 7.54773 131.434 7.49875C130.535 6.93549 128.885 6.32814 127.185 6.32814C125.319 6.32814 124.114 7.11671 124.114 8.351C124.114 9.44079 125.104 9.94283 126.754 10.1437L128.334 10.3445C131.231 10.7314 132.94 11.951 132.94 14.2041C132.94 16.8 130.616 18.48 126.901 18.48C125.26 18.48 123.056 18.0955 121.283 16.8196C121.215 16.7706 121.198 16.6726 121.242 16.6016L122.16 15.1273C122.209 15.049 122.314 15.0294 122.39 15.0832C123.394 15.8253 124.736 16.4277 126.916 16.4277C129.154 16.4277 130.531 15.6955 130.531 14.3485C130.531 13.3445 129.642 12.7126 127.79 12.4824L126.213 12.2963C123.157 11.9241 121.68 10.5453 121.68 8.48079C121.68 5.87018 123.847 4.29059 127.161 4.29059C129.247 4.29059 131.158 4.82937 132.475 5.68651C132.546 5.73304 132.568 5.8261 132.527 5.89957L131.657 7.44243Z"
    fill="black" />
  <path
    d="M35.3363 14.8874C35.2751 14.8261 35.1771 14.8261 35.1159 14.8874C33.1029 16.7902 30.2547 16.7363 28.3641 14.8457C26.4269 12.9086 26.4171 9.99675 28.4351 7.97634C30.4163 5.99512 33.2449 5.97797 35.182 7.80736C35.2457 7.86614 35.3412 7.86859 35.4024 7.80736L36.7396 6.47022C36.8033 6.40654 36.8033 6.30124 36.7371 6.23757C33.818 3.43104 29.5641 3.46042 26.7404 6.28165C23.88 9.14206 23.8898 13.4743 26.8114 16.3959C29.6914 19.2759 33.9502 19.3372 36.8131 16.5967C36.8792 16.5355 36.8792 16.4278 36.8155 16.3641L35.3363 14.8874Z"
    fill="black" />
  <path
    d="M40.3151 11.3731C40.4008 11.3731 40.4694 11.3045 40.4718 11.2163C40.5502 8.44655 42.6024 6.47267 45.2743 6.47267C48.0147 6.47267 50.0816 8.52491 50.0816 11.3804C50.0816 14.1821 48.093 16.1951 45.431 16.271C45.3453 16.2735 45.2743 16.3421 45.2743 16.4278V18.3184C45.2743 18.409 45.3502 18.4825 45.4383 18.48C49.4865 18.3992 52.4767 15.3723 52.4767 11.3804C52.4767 7.33471 49.4057 4.27838 45.2743 4.27838C41.2016 4.27838 38.1453 7.24654 38.0596 11.2065C38.0571 11.2972 38.133 11.3731 38.2212 11.3731H40.3151Z"
    fill="black" />
  <path
    d="M107.713 4.56244H105.696C105.607 4.56244 105.536 4.63346 105.536 4.72162V5.93876C104.295 4.82693 102.642 4.16815 100.776 4.16815C96.7298 4.16815 93.6735 7.23917 93.6735 11.3706C93.6735 15.4433 96.6416 18.4996 100.604 18.5853C100.695 18.5877 100.771 18.5118 100.771 18.4237V16.3322C100.771 16.2465 100.702 16.1779 100.614 16.1755C97.8441 16.0971 95.8702 14.0449 95.8702 11.3706C95.8702 8.63019 97.9225 6.56325 100.778 6.56325C103.212 6.56325 105.539 8.26529 105.539 10.2073V12.2082V18.4237C105.539 18.5118 105.61 18.5828 105.698 18.5828H107.716C107.804 18.5828 107.875 18.5118 107.875 18.4237V10.5428V4.71917C107.875 4.63591 107.802 4.56244 107.713 4.56244Z"
    fill="black" />
  <path
    d="M46.7902 12.8425L47.4734 10.2955C47.6204 9.74939 47.1208 9.24979 46.5747 9.39673L44.0277 10.08C43.4816 10.2269 43.2979 10.9078 43.6996 11.3094L45.5632 13.1731C45.9624 13.5698 46.6457 13.3886 46.7902 12.8425Z"
    fill="#FDCC01" />
  <ellipse cx="136.408" cy="16.8979" rx="1.71429" ry="1.71428" fill="black" />
  <path
    d="M174.703 13.538C173.045 13.538 172.283 12.6882 172.283 11.0302V0.827759H167.204V8.4049C166.051 5.92654 163.535 4.20735 160.619 4.20735C157.702 4.20735 155.189 5.92409 154.033 8.4049V4.36164H149.018V11.4906C149.018 12.7763 148.342 13.6482 147.208 13.6482C146.074 13.6482 145.398 12.7763 145.398 11.4906V4.36164H140.319V11.5567C140.319 15.96 143.023 18.7298 147.208 18.7298C150.568 18.7298 152.968 16.8637 153.754 13.8441C154.736 16.6874 157.438 18.7298 160.616 18.7298C163.753 18.7298 166.425 16.7412 167.439 13.9567C168.189 17.1894 170.635 18.6196 173.914 18.6196H175.2V13.5404H174.703V13.538ZM160.619 13.6482C159.419 13.6482 158.439 12.6661 158.439 11.4686C158.439 10.2686 159.421 9.28898 160.619 9.28898C161.819 9.28898 162.798 10.271 162.798 11.4686C162.798 12.6661 161.816 13.6482 160.619 13.6482Z"
    fill="black" />
</svg>