<svg width="130" height="24" fill="none" xmlns="http://www.w3.org/2000/svg" role="img" aria-label="Devpleno">
    <g clip-path="url(#clip0)">
        <path
            d="M5.18 20.765c-1.357-.113-2.466-.306-3.31-.612-.844-.306-1.473-.547-1.887-.74l1.192-3.123c.645.306 1.423.595 2.334.837.893.257 1.854.386 2.863.386 1.126 0 1.904-.145 2.334-.45.414-.306.629-.725.629-1.256 0-.338-.083-.644-.248-.886a2.388 2.388 0 00-.729-.66 8.043 8.043 0 00-1.191-.579c-.48-.193-1.043-.386-1.672-.612-.612-.209-1.208-.45-1.804-.724a7.164 7.164 0 01-1.59-.966A4.144 4.144 0 01.96 9.98C.678 9.433.53 8.757.53 7.984c0-.596.082-1.175.264-1.722a4.463 4.463 0 01.828-1.497c.364-.451.86-.837 1.456-1.16.596-.321 1.308-.547 2.119-.692V0h3.509v2.817c.96.096 1.804.225 2.5.402.695.177 1.257.354 1.655.548L12 7.018c-.613-.257-1.324-.467-2.135-.644a11.88 11.88 0 00-2.55-.273c-.893 0-1.539.144-1.92.434-.397.29-.579.676-.579 1.143 0 .29.067.531.182.74.116.21.315.387.58.564.265.16.579.322.96.483.38.16.844.322 1.374.499.81.29 1.572.611 2.267.95.695.338 1.308.74 1.804 1.175.513.45.91.965 1.192 1.56.281.597.43 1.289.43 2.094 0 .547-.082 1.078-.248 1.61a4.06 4.06 0 01-.844 1.48c-.397.45-.894.837-1.523 1.159-.629.322-1.39.563-2.3.708V24H5.18v-3.235z"
            fill="#C965A7"></path>
        <path
            d="M28.42 20.571c-.364.113-.795.21-1.275.306-.48.097-.993.193-1.522.258-.53.064-1.076.129-1.623.177-.546.048-1.075.064-1.572.064-1.208 0-2.284-.177-3.228-.515-.943-.338-1.754-.837-2.4-1.48a6.488 6.488 0 01-1.49-2.335c-.347-.917-.513-1.931-.513-3.074 0-1.16.15-2.205.447-3.139.298-.934.729-1.722 1.275-2.366a5.726 5.726 0 012.052-1.497c.811-.338 1.738-.515 2.781-.515.58 0 1.093.048 1.54.16.463.113.91.258 1.373.467V.644L28.42 0v20.571zm-9.385-6.776c0 1.24.281 2.253.86 3.01.58.756 1.424 1.143 2.566 1.143.364 0 .712-.016 1.026-.049.315-.032.58-.064.778-.096v-7.34a3.422 3.422 0 00-1.01-.403 4.852 4.852 0 00-1.274-.16c-1.97 0-2.946 1.303-2.946 3.895zM30.472 14.02c0-1.271.199-2.366.596-3.316.397-.95.927-1.738 1.573-2.366a6.422 6.422 0 012.25-1.433 7.28 7.28 0 012.6-.482c2.085 0 3.724.611 4.932 1.85 1.208 1.24 1.804 3.059 1.804 5.457 0 .242-.016.5-.033.773a42.48 42.48 0 01-.05.74h-9.418c.1.838.497 1.498 1.192 1.98.712.483 1.655.725 2.847.725.761 0 1.506-.065 2.251-.21.728-.128 1.34-.305 1.804-.498l.563 3.283c-.215.113-.513.21-.894.322-.364.113-.778.21-1.241.29-.464.08-.944.145-1.457.21-.513.047-1.043.08-1.556.08-1.324 0-2.466-.194-3.443-.564-.976-.386-1.787-.901-2.433-1.561-.645-.66-1.109-1.449-1.423-2.35-.315-.902-.464-1.884-.464-2.93zm9.75-1.545a4.078 4.078 0 00-.183-.998 2.503 2.503 0 00-1.29-1.497c-.332-.161-.729-.242-1.209-.242-.463 0-.86.08-1.192.226a2.679 2.679 0 00-.844.611 2.784 2.784 0 00-.513.886 5.726 5.726 0 00-.265 1.014h5.495zM50.633 21.038c-.944-1.803-1.92-3.927-2.897-6.342a96.567 96.567 0 01-2.78-7.92h4.402c.182.709.414 1.465.662 2.286.249.821.513 1.658.778 2.495.265.837.546 1.658.811 2.447.265.789.53 1.513.795 2.173.248-.644.496-1.368.778-2.173.281-.789.563-1.61.827-2.447.265-.837.53-1.674.778-2.495.249-.82.464-1.593.663-2.285h4.303a101.056 101.056 0 01-2.78 7.92c-.977 2.414-1.937 4.538-2.897 6.341h-3.443zM66.87 2.028c2.88 0 5.098.5 6.638 1.481 1.54.982 2.317 2.592 2.317 4.845 0 2.254-.778 3.896-2.334 4.894-1.556.998-3.79 1.497-6.687 1.497H65.43v6.293h-4.353V2.528a27.825 27.825 0 013.013-.387c1.059-.065 1.986-.113 2.78-.113zm.282 3.606a34.729 34.729 0 00-1.721.08v5.425h1.373c1.506 0 2.632-.193 3.393-.596.762-.402 1.142-1.143 1.142-2.221 0-.531-.099-.966-.297-1.304a2.263 2.263 0 00-.845-.82c-.364-.21-.81-.355-1.324-.435a11.165 11.165 0 00-1.721-.13zM83.439 21.312c-1.208-.016-2.185-.145-2.946-.386-.762-.242-1.341-.564-1.788-.982a3.32 3.32 0 01-.894-1.546c-.165-.611-.231-1.287-.231-2.044V.644L81.734 0v15.533c0 .354.033.692.083.982.05.29.165.531.314.724.166.194.381.355.679.483.298.13.695.21 1.192.242l-.563 3.348zM84.879 14.02c0-1.271.199-2.366.596-3.316.397-.95.927-1.738 1.572-2.366a6.423 6.423 0 012.251-1.433 7.28 7.28 0 012.6-.482c2.085 0 3.723.611 4.932 1.85 1.208 1.24 1.804 3.059 1.804 5.457 0 .242-.017.5-.033.773-.017.274-.033.531-.05.74h-9.418c.1.838.496 1.498 1.192 1.98.711.483 1.655.725 2.847.725.761 0 1.506-.065 2.25-.21.729-.128 1.341-.305 1.805-.498l.563 3.283c-.216.113-.514.21-.894.322-.364.113-.778.21-1.242.29-.463.08-.943.145-1.456.21a16.78 16.78 0 01-1.556.08c-1.324 0-2.466-.194-3.443-.564-.976-.386-1.787-.901-2.433-1.561-.646-.66-1.109-1.449-1.424-2.35-.314-.902-.463-1.884-.463-2.93zm9.75-1.545a4.087 4.087 0 00-.183-.998 2.503 2.503 0 00-1.29-1.497c-.332-.161-.73-.242-1.21-.242-.463 0-.86.08-1.191.226a2.679 2.679 0 00-.844.611 2.786 2.786 0 00-.513.886 5.734 5.734 0 00-.265 1.014h5.495zM100.868 7.26a26.74 26.74 0 012.731-.564 22.33 22.33 0 013.509-.257c1.242 0 2.285.16 3.112.466.828.322 1.49.757 1.97 1.336a5.17 5.17 0 011.026 2.06c.199.79.315 1.675.315 2.657v8.048h-4.155v-7.565c0-1.304-.182-2.222-.53-2.769-.347-.547-1.009-.82-1.986-.82-.298 0-.612.015-.943.047-.331.033-.629.065-.894.097v11.01h-4.155V7.26zM130 13.875c0 1.127-.166 2.141-.497 3.075-.331.933-.811 1.722-1.456 2.382a6.432 6.432 0 01-2.268 1.53c-.877.353-1.87.546-2.963.546-1.076 0-2.052-.177-2.946-.547a6.432 6.432 0 01-2.268-1.529 6.898 6.898 0 01-1.473-2.382 8.784 8.784 0 01-.529-3.075c0-1.127.182-2.14.546-3.058.364-.918.861-1.706 1.506-2.366a6.612 6.612 0 012.284-1.513 7.635 7.635 0 012.88-.548c1.06 0 2.036.177 2.914.548a6.61 6.61 0 012.267 1.513 6.666 6.666 0 011.473 2.366c.364.917.53 1.948.53 3.058zm-4.237 0c0-1.24-.249-2.221-.762-2.945-.513-.709-1.241-1.079-2.185-1.079-.943 0-1.688.354-2.201 1.079-.513.708-.778 1.69-.778 2.945 0 1.256.265 2.238.778 2.962.513.724 1.258 1.095 2.201 1.095.944 0 1.672-.37 2.185-1.095.513-.724.762-1.706.762-2.962z"
            fill="currentColor"></path>
    </g>
    <defs>
        <clipPath id="clip0">
            <path fill="#fff" d="M0 0h130v24H0z"></path>
        </clipPath>
    </defs>
</svg>