<?xml version="1.0" encoding="utf-8"?>
<!-- Generator: Adobe Illustrator 16.0.0, SVG Export Plug-In . SVG Version: 6.00 Build 0)  -->
<!DOCTYPE svg PUBLIC "-//W3C//DTD SVG 1.1//EN" "http://www.w3.org/Graphics/SVG/1.1/DTD/svg11.dtd">
<svg version="1.1" id="Layer_1" xmlns="http://www.w3.org/2000/svg" xmlns:xlink="http://www.w3.org/1999/xlink" x="0px" y="0px"
	 width="156px" height="40px" viewBox="-17.352 -4.355 156 40" enable-background="new -17.352 -4.355 156 40" xml:space="preserve"
	>
<g>
	<path fill="#211D1E" d="M42.392,7.193h4.791c0,0,0,9.567,0,10.781c0,2.395-2.161,5.739-6.388,5.739
		c-4.226,0-6.948-2.332-6.948-6.72h4.789c0,0-0.281,2.707,1.878,2.707C43.143,19.701,42.392,18.1,42.392,7.193z"/>
	<path fill="#211D1E" d="M58.086,7.073c-4.616,0-8.36,3.719-8.36,8.309c0,4.587,3.744,8.309,8.36,8.309
		c4.614,0,8.358-3.722,8.358-8.309C66.443,10.792,62.7,7.073,58.086,7.073z M58.086,19.333c-2.153,0-3.897-1.733-3.897-3.874
		c0-2.14,1.744-3.875,3.897-3.875c2.151,0,3.897,1.735,3.897,3.875C61.983,17.6,60.237,19.333,58.086,19.333z"/>
	<path fill="#211D1E" d="M80.519,15.36V14.8c0,0,1.925,0.421,1.925-3.222c0-3.642-3.896-4.387-5.868-4.387s-7.419,0-7.419,0
		l0.092,16.195c0,0,6.621,0,9.91,0c3.285,0,4.554-2.613,4.554-4.436C83.712,17.13,82.208,15.36,80.519,15.36z M73.725,10.914
		c0,0,1.579,0.013,2.521,0.013c0.938,0,1.479,0.584,1.479,1.377c0,0.793-0.869,1.261-1.55,1.261c-0.682,0-2.45-0.024-2.45-0.024
		L73.725,10.914L73.725,10.914z M77.358,19.921c-1.144,0-3.633,0-3.633,0l-0.016-2.679c0,0,2.63,0,3.443,0s1.661,0.669,1.661,1.402
		C78.812,19.375,78.498,19.921,77.358,19.921z"/>
	<path fill="#211D1E" d="M85.619,12.358c0-2.178,1.473-5.242,6.105-5.242c4.634,0,6.417,1.44,6.417,1.44l-1.376,3.832
		c-2.38-1.026-3.381-1.118-4.603-1.118c-1.221,0-1.688,0.373-1.688,0.777c0,1.19,1.345,0.686,4.443,1.9
		c3.1,1.212,3.569,3.11,3.569,4.417c0,1.308-1.126,5.42-6.917,5.42c-4.078,0-6.105-1.344-6.105-1.344l1.189-4.293
		c2.193,1.429,2.944,1.648,4.413,1.648c1.474,0,2.567-0.372,2.567-1.09c0-0.716-1.408-0.775-3.507-1.492
		C88.032,16.496,85.903,15.906,85.619,12.358z"/>
	<rect x="100.896" y="7.333" fill="#211D1E" width="4.838" height="16.196"/>
	<polygon fill="#211D1E" points="121.832,7.193 107.98,7.193 107.98,11.626 112.494,11.626 112.494,23.528 117.333,23.528 
		117.333,11.626 121.832,11.626 	"/>
	<polygon fill="#211D1E" points="138.648,8.219 138.6,7.239 133.669,7.239 130.524,12.979 130.538,13.207 130.459,13.207 
		130.47,12.979 127.327,7.239 122.396,7.239 122.349,8.219 128.124,17.228 128.13,17.229 128.13,23.528 132.966,23.528 
		132.966,17.082 	"/>
</g>
<g>
	<ellipse fill="#211D1E" cx="2.768" cy="15.645" rx="20.12" ry="20"/>
	<path fill="#FFF9EE" d="M11.188,3.006c0,0,0,14.583,0,18.26c0,3.679-2.875,8.75-9.034,8.75c-5.285,0-9.203-4.94-9.203-9.143h9.251
		V2.999L11.188,3.006z"/>
	<path fill="#6EC1E6" d="M2.203,20.873h-9.251c0,4.202,3.918,9.142,9.203,9.142L2.203,20.873z"/>
</g>
</svg>
