<svg xmlns="http://www.w3.org/2000/svg" xmlns:xlink="http://www.w3.org/1999/xlink" width="179" height="45" version="1.1" style=""><rect id="backgroundrect" width="100%" height="100%" x="0" y="0" fill="none" stroke="none"/>
    <!-- Generator: Sketch 46.2 (44496) - http://www.bohemiancoding.com/sketch -->
    <title>logos/TL/logo-tl-dark</title>
    <desc>Created with Sketch.</desc>
    <defs>
        <path d="M37.2409183,9.40747253 L22.2097731,0.635934066 C20.7567086,-0.211648352 18.8789774,-0.211648352 17.4229774,0.635934066 L2.39183226,9.40747253 C0.914794624,10.2634615 -9.78494623e-05,11.8730769 -9.78494623e-05,13.5993956 L-9.78494623e-05,31.139011 C-9.78494623e-05,32.8648352 0.914794624,34.4650549 2.39183226,35.3284615 L17.4229774,44.0995055 C18.1524452,44.5203297 18.9792731,44.7448352 19.817843,44.7448352 C20.6569022,44.7448352 21.4832409,44.5203297 22.2097731,44.0995055 L37.2409183,35.3284615 C38.7179559,34.4650549 39.6357839,32.8648352 39.6357839,31.139011 L39.6357839,13.5993956 C39.6357839,11.8730769 38.7179559,10.2634615 37.2409183,9.40747253 L37.2409183,9.40747253 Z" id="path-1"/>
    </defs>
    
<g class="currentLayer" style=""><title>Layer 1</title>
        
            <g id="truelogic" fill="#000000" fill-opacity="1" class="">
                <path d="M176.52960428901292,24.690044974655763 C175.7348272890129,25.66158429465576 174.9160692890129,26.30545823465576 173.5360582890129,26.30545823465576 C171.67815228901293,26.30545823465576 170.36894028901293,24.74675629465576 170.36894028901293,22.747539174655763 L170.36894028901293,22.712023004655762 C170.36894028901293,20.769517204655763 171.67815228901293,19.18962012465576 173.5360582890129,19.18962012465576 C174.8058742890129,19.18962012465576 175.6783022890129,19.805424824655763 176.43767928901292,20.751759114655762 L179.2074092890129,18.60245750465576 C178.0300882890129,16.96642194465576 176.2846622890129,15.824175834655762 173.57145728901293,15.824175834655762 C169.5530372890129,15.824175834655762 166.57947428901292,18.869401674655762 166.57947428901292,22.747539174655763 L166.57947428901292,22.790502294655763 C166.57947428901292,26.760867334655764 169.63125828901292,29.67032963465576 173.4230082890129,29.67032963465576 C176.3594582890129,29.67032963465576 178.0477882890129,28.396902834655762 179.29990428901291,26.668639834655764 L176.52960428901292,24.690044974655763 z" id="Fill-29" fill="#000000" fill-opacity="1"/>
                <polygon id="Fill-27" points="159.24076622724533,29.670330047607422 162.66549462080002,29.670330047607422 162.66549462080002,16.318681716918945 159.24076622724533,16.318681716918945 " fill="#000000" fill-opacity="1"/>
                <path d="M149.3470158890129,24.32686341465576 L151.90977468901292,24.32686341465576 L151.90977468901292,25.94571373465576 C151.3713940890129,26.30545823465576 150.7016328890129,26.493923134655763 149.8294898890129,26.493923134655763 C147.7704495890129,26.493923134655763 146.3051373890129,24.956416314655762 146.3051373890129,22.80482333465576 L146.3051373890129,22.769307154655763 C146.3051373890129,20.73400102465576 147.75255948901292,19.11457787465576 149.6282260890129,19.11457787465576 C150.90625108901293,19.11457787465576 151.8370960890129,19.57399682465576 152.76402758901293,20.37081946465576 L154.88232928901292,17.77069152465576 C153.5070262890129,16.54652906765576 151.88908928901293,15.824175834655762 149.6108950890129,15.824175834655762 C145.5789105890129,15.824175834655762 142.60635638901292,18.869401674655762 142.60635638901292,22.747539174655763 L142.60635638901292,22.790502294655763 C142.60635638901292,26.82101563465576 145.6342581890129,29.67032963465576 149.6807782890129,29.67032963465576 C152.04171428901293,29.67032963465576 153.95204328901292,28.77726963465576 155.32678628901292,27.618411134655762 L155.32678628901292,21.623623994655762 L149.3470158890129,21.623623994655762 L149.3470158890129,24.32686341465576 z" id="Fill-25" fill="#000000" fill-opacity="1"/>
                <path d="M135.9470439890129,22.790502294655763 C135.9470439890129,24.707803064655764 134.6098200890129,26.340974434655763 132.59661818901293,26.340974434655763 C130.6004148890129,26.340974434655763 129.2280605890129,24.668276994655763 129.2280605890129,22.747539174655763 L129.2280605890129,22.712023004655762 C129.2280605890129,20.790712334655762 130.5652843890129,19.15066689465576 132.5575213890129,19.15066689465576 C134.5707232890129,19.15066689465576 135.9470439890129,20.830238404655763 135.9470439890129,22.747539174655763 L135.9470439890129,22.790502294655763 zM132.59661818901293,15.824175834655762 C128.53111758901292,15.824175834655762 125.48270048901291,18.92611299465576 125.48270048901291,22.747539174655763 L125.48270048901291,22.790502294655763 C125.48270048901291,26.611355634655762 128.4925873890129,29.67032963465576 132.5575213890129,29.67032963465576 C136.62245528901292,29.67032963465576 139.6708724890129,26.572402434655764 139.6708724890129,22.747539174655763 L139.6708724890129,22.712023004655762 C139.6708724890129,18.890596814655762 136.6615520890129,15.824175834655762 132.59661818901293,15.824175834655762 L132.59661818901293,15.824175834655762 z" id="Fill-23" fill="#000000" fill-opacity="1"/>
                <path d="M116.37850558901292,27.833862334655763 C116.09375408901292,27.976341134655762 115.24637968901291,27.28266263465576 115.63784388901291,26.908081034655762 C116.0464484890129,26.51856223465576 116.8128465890129,25.54156495465576 116.8128465890129,24.45520020465576 L116.8128465890129,16.31868132965576 L113.2515176890129,16.31868132965576 L113.2515176890129,29.67032963465576 L123.03646388901291,29.67032963465576 L123.03646388901291,26.42721203465576 L119.03603728901291,26.42721203465576 C117.45635758901291,26.43065903465576 116.67099788901291,27.68736183465576 116.37850558901292,27.833862334655763 z" id="Fill-31" fill="#000000" fill-opacity="1"/>
                <polygon id="Fill-21" points="102.70345848798752,24.40378189086914 109.06852501630783,24.40378189086914 109.06852501630783,21.48928451538086 102.70345848798752,21.48928451538086 102.70345848798752,19.465856552124023 109.7315041422844,19.465856552124023 109.7315041422844,16.318681716918945 99.06334465742111,16.318681716918945 99.06334465742111,29.670330047607422 109.82678765058517,29.670330047607422 109.82678765058517,26.527175903320312 102.70345848798752,26.527175903320312 " fill="#000000" fill-opacity="1"/>
                <path d="M91.4523424890129,23.698351794655764 C91.4523424890129,25.53410475465576 90.49462838901292,26.395865234655762 89.03546978901291,26.395865234655762 C87.57292298901291,26.395865234655762 86.6152089890129,25.495754154655764 86.6152089890129,23.604167234655762 L86.6152089890129,16.31868132965576 L82.91818428901291,16.31868132965576 L82.91818428901291,23.680868434655764 C82.91818428901291,27.783254634655762 85.2644707890129,29.67032963465576 88.9965061890129,29.67032963465576 C92.72910628901292,29.67032963465576 95.14936708901291,27.81822133465576 95.14936708901291,23.582736024655762 L95.14936708901291,16.31868132965576 L91.4523424890129,16.31868132965576 L91.4523424890129,23.698351794655764 z" id="Fill-19" fill="#000000" fill-opacity="1"/>
                <path d="M75.84160488901291,21.14630185465576 C75.84160488901291,22.11665186465576 75.12064378901292,22.73080470465576 73.8668231890129,22.73080470465576 L71.4375100890129,22.73080470465576 L71.4375100890129,19.522732224655762 L73.84909928901291,19.522732224655762 C75.08176558901292,19.522732224655762 75.84160488901291,20.057602474655763 75.84160488901291,21.10723507465576 L75.84160488901291,21.14630185465576 zM79.5458928890129,20.91764626465576 L79.5458928890129,20.878579474655762 C79.5458928890129,19.56179901465576 79.14453308901291,18.530550784655762 78.36696998901292,17.767599454655763 C77.4750592890129,16.85757316465576 76.06858468901291,16.31868132965576 74.03720098901292,16.31868132965576 L67.75151768901291,16.31868132965576 L67.75151768901291,29.67032963465576 L71.4375100890129,29.67032963465576 L71.4375100890129,25.62749192465576 L73.05038188901291,25.62749192465576 L75.72782908901291,29.67032963465576 L79.98270048901291,29.67032963465576 L76.81127188901291,25.01736066465576 C78.4624500890129,24.31071145465576 79.5458928890129,22.958885784655763 79.5458928890129,20.91764626465576 L79.5458928890129,20.91764626465576 z" id="Fill-17" fill="#000000" fill-opacity="1"/>
                <path d="M53.07409828901291,19.56179901465576 L55.21963103901291,19.56179901465576 C56.19835291901291,19.56179901465576 57.27364078901291,18.04323425465576 57.48092254901291,17.946716314655763 C57.78148108901291,17.800215874655763 58.779873049012906,18.565816234655763 58.37221892901291,18.936950694655764 C58.04690173901291,19.233398654655762 57.09075801901291,20.23101807465576 57.09075801901291,21.524414074655763 L57.09075801901291,29.67032963465576 L60.79937403901291,29.67032963465576 L60.79937403901291,19.56179901465576 L64.8160337890129,19.56179901465576 L64.8160337890129,16.31868132965576 L53.07409828901291,16.31868132965576 L53.07409828901291,19.56179901465576 z" id="Fill-30" fill="#000000" fill-opacity="1"/>
            </g>
            <g id="iso" fill="#ffffff" fill-opacity="1" class="">
                <mask id="mask-2" fill="white" transform="translate(0.7246376872062683,0) ">
                    <use xlink:href="#path-1" id="svg_1"/>
                </mask>
                <use id="Combined-Shape" fill="#00C6C0" xlink:href="#path-1" y="0" x="0.7246376872062683"/>
                <path d="M32.60780868720627,28.7584615 L23.20496458720627,28.7584615 L23.20496458720627,15.9883516 L27.42619038720627,15.9883516 L27.42619038720627,23.3273926 C27.42619038720627,24.2722168 26.523869887206267,25.2968786 26.195584987206267,25.6069336 C25.861429087206268,25.9110545 26.789709287206268,26.5973315 27.03286518720627,26.4776611 C27.278956587206267,26.3579908 27.83152448720627,25.11 29.15347068720627,25.11 C29.15934168720627,25.11 30.31078768720627,25.11 32.60780868720627,25.11 L32.60780868720627,28.7584615 z" id="Path" fill="#ffffff" mask="url(#mask-2)" fill-opacity="1"/>
                <path d="M21.34484628720627,19.5972527 L17.628034487206268,19.5972527 L17.628034487206268,28.7584615 L13.406808687206269,28.7584615 L13.406808687206269,21.3878174 C13.413168887206268,19.9868833 14.146003687206269,19.7241789 14.58926168720627,19.3122559 C14.920971387206269,19.0056625 14.161280887206269,18.2963515 13.915189487206268,18.4155273 C13.733189487206268,18.5070109 12.665067387206268,19.5972527 11.759793887206268,19.5972527 L9.687061347206269,19.5972527 L9.687061347206269,15.9883516 L21.34484628720627,15.9883516 L21.34484628720627,19.5972527 z" id="Path" fill="#ffffff" mask="url(#mask-2)" transform="" fill-opacity="1"/>
            </g>
        
    </g></svg>