<svg width="776" height="260" viewBox="0 0 776 260" fill="none" xmlns="http://www.w3.org/2000/svg">
    <path
        d="M112.02 233.66C116.332 237.11 122.625 236.411 126.075 232.1L141.443 212.896C144.894 208.583 144.195 202.289 139.882 198.839L67.7526 141.139C62.7482 137.136 62.7482 129.524 67.7526 125.521L139.882 67.8213C144.195 64.3708 144.894 58.0769 141.443 53.7642L126.075 34.5604C122.625 30.2488 116.332 29.5502 112.02 32.9999L8.3698 115.92C5.75824 118.009 3.64996 120.658 2.20112 123.671C0.752281 126.685 0 129.986 0 133.33C0 136.674 0.752281 139.975 2.20112 142.989C3.64996 146.002 5.75824 148.651 8.3698 150.74L112.02 233.66Z"
        fill="#41B883" />
    <path
        d="M205.022 214.525C203.692 214.525 202.572 214.07 201.662 213.16C200.752 212.25 200.297 211.13 200.297 209.8V147.115C200.297 145.225 200.962 143.615 202.292 142.285C203.622 140.885 205.232 140.185 207.122 140.185H208.487C210.727 140.185 212.652 141.235 214.262 143.335L254.687 201.715V145.015C254.687 143.685 255.142 142.565 256.052 141.655C256.962 140.675 258.082 140.185 259.412 140.185C260.742 140.185 261.862 140.675 262.772 141.655C263.752 142.565 264.242 143.685 264.242 145.015V207.7C264.242 209.59 263.542 211.2 262.142 212.53C260.812 213.86 259.202 214.525 257.312 214.525H256.052C254.932 214.525 253.882 214.28 252.902 213.79C251.922 213.23 251.117 212.53 250.487 211.69L209.852 152.995V209.8C209.852 211.13 209.362 212.25 208.382 213.16C207.472 214.07 206.352 214.525 205.022 214.525ZM310.133 215.05C304.743 215.05 300.018 213.895 295.958 211.585C291.898 209.275 288.748 206.02 286.508 201.82C284.338 197.55 283.253 192.685 283.253 187.225C283.253 181.765 284.338 176.935 286.508 172.735C288.748 168.465 291.898 165.175 295.958 162.865C300.018 160.555 304.743 159.4 310.133 159.4C315.453 159.4 320.143 160.555 324.203 162.865C328.263 165.175 331.413 168.465 333.653 172.735C335.893 176.935 337.013 181.765 337.013 187.225C337.013 192.685 335.893 197.55 333.653 201.82C331.413 206.02 328.263 209.275 324.203 211.585C320.143 213.895 315.453 215.05 310.133 215.05ZM310.133 206.335C313.003 206.335 315.733 205.67 318.323 204.34C320.983 203.01 323.153 200.91 324.833 198.04C326.583 195.17 327.458 191.53 327.458 187.12C327.458 182.78 326.583 179.175 324.833 176.305C323.153 173.435 320.983 171.37 318.323 170.11C315.733 168.78 313.003 168.115 310.133 168.115C307.193 168.115 304.393 168.78 301.733 170.11C299.143 171.37 297.008 173.435 295.328 176.305C293.648 179.175 292.808 182.78 292.808 187.12C292.808 191.53 293.648 195.17 295.328 198.04C297.008 200.91 299.143 203.01 301.733 204.34C304.393 205.67 307.193 206.335 310.133 206.335ZM360.365 214.525C359.035 214.525 357.915 214.07 357.005 213.16C356.095 212.25 355.64 211.13 355.64 209.8V164.755C355.64 163.425 356.095 162.305 357.005 161.395C357.915 160.415 359.035 159.925 360.365 159.925C361.695 159.925 362.815 160.415 363.725 161.395C364.705 162.305 365.195 163.425 365.195 164.755V169.27C370.095 162.69 375.59 159.4 381.68 159.4H382.205C383.535 159.4 384.62 159.855 385.46 160.765C386.37 161.675 386.825 162.795 386.825 164.125C386.825 165.455 386.37 166.54 385.46 167.38C384.55 168.22 383.395 168.64 381.995 168.64H381.47C378.11 168.64 375.03 169.48 372.23 171.16C369.43 172.77 367.085 175.01 365.195 177.88V209.8C365.195 211.13 364.705 212.25 363.725 213.16C362.815 214.07 361.695 214.525 360.365 214.525ZM419.566 215.05C409.346 215.05 404.236 210.43 404.236 201.19V168.64H396.781C396.221 168.64 395.731 168.465 395.311 168.115C394.961 167.695 394.786 167.205 394.786 166.645C394.786 165.945 395.101 165.35 395.731 164.86L410.011 150.895C410.641 150.265 411.236 149.95 411.796 149.95C412.356 149.95 412.811 150.16 413.161 150.58C413.581 151 413.791 151.49 413.791 152.05V160.45H425.656C426.846 160.45 427.826 160.835 428.596 161.605C429.366 162.375 429.751 163.355 429.751 164.545C429.751 165.665 429.366 166.645 428.596 167.485C427.826 168.255 426.846 168.64 425.656 168.64H413.791V200.35C413.791 203.08 414.421 204.83 415.681 205.6C417.011 206.3 418.656 206.65 420.616 206.65C422.016 206.65 423.416 206.44 424.816 206.02C425.096 205.95 425.376 205.88 425.656 205.81C426.006 205.74 426.426 205.705 426.916 205.705C427.896 205.705 428.771 206.09 429.541 206.86C430.311 207.56 430.696 208.435 430.696 209.485C430.696 211.095 429.891 212.32 428.281 213.16C425.551 214.42 422.646 215.05 419.566 215.05ZM469.651 215.05C461.111 215.05 454.426 212.635 449.596 207.805C444.836 202.905 442.456 196.045 442.456 187.225C442.456 182.255 443.366 177.67 445.186 173.47C447.006 169.27 449.806 165.875 453.586 163.285C457.366 160.695 462.021 159.4 467.551 159.4C472.731 159.4 477.211 160.625 480.991 163.075C484.771 165.455 487.641 168.675 489.601 172.735C491.561 176.725 492.541 181.1 492.541 185.86C492.541 187.19 492.086 188.31 491.176 189.22C490.336 190.13 489.181 190.585 487.711 190.585H452.116C452.676 195.485 454.496 199.3 457.576 202.03C460.656 204.76 464.961 206.125 470.491 206.125C473.431 206.125 475.986 205.845 478.156 205.285C480.396 204.725 482.566 203.92 484.666 202.87C485.226 202.59 485.856 202.45 486.556 202.45C487.676 202.45 488.656 202.835 489.496 203.605C490.336 204.375 490.756 205.355 490.756 206.545C490.756 208.085 489.846 209.38 488.026 210.43C485.296 211.97 482.601 213.125 479.941 213.895C477.281 214.665 473.851 215.05 469.651 215.05ZM483.091 182.815C482.881 179.385 481.971 176.515 480.361 174.205C478.821 171.895 476.896 170.215 474.586 169.165C472.276 168.045 469.931 167.485 467.551 167.485C465.171 167.485 462.826 168.045 460.516 169.165C458.206 170.215 456.281 171.895 454.741 174.205C453.201 176.515 452.326 179.385 452.116 182.815H483.091Z"
        fill="#333333" />
    <path
        d="M201.662 213.16L203.783 211.039H203.783L201.662 213.16ZM202.292 142.285L204.413 144.406L204.44 144.379L204.467 144.351L202.292 142.285ZM214.262 143.335L216.728 141.627L216.687 141.567L216.643 141.51L214.262 143.335ZM254.687 201.715L252.22 203.423L257.687 211.317V201.715H254.687ZM256.052 141.655L258.173 143.776L258.212 143.737L258.25 143.696L256.052 141.655ZM262.772 141.655L260.573 143.696L260.649 143.778L260.73 143.853L262.772 141.655ZM262.142 212.53L260.076 210.355L260.048 210.381L260.021 210.409L262.142 212.53ZM252.902 213.79L251.413 216.395L251.486 216.436L251.56 216.473L252.902 213.79ZM250.487 211.69L248.02 213.398L248.053 213.444L248.087 213.49L250.487 211.69ZM209.852 152.995L212.318 151.287L206.852 143.391V152.995H209.852ZM208.382 213.16L206.34 210.962L206.3 210.999L206.26 211.039L208.382 213.16ZM205.022 211.525C204.458 211.525 204.11 211.365 203.783 211.039L199.54 215.281C201.034 216.775 202.926 217.525 205.022 217.525V211.525ZM203.783 211.039C203.456 210.712 203.297 210.364 203.297 209.8H197.297C197.297 211.896 198.047 213.788 199.54 215.281L203.783 211.039ZM203.297 209.8V147.115H197.297V209.8H203.297ZM203.297 147.115C203.297 146.016 203.649 145.171 204.413 144.406L200.17 140.164C198.275 142.059 197.297 144.434 197.297 147.115H203.297ZM204.467 144.351C205.244 143.533 206.074 143.185 207.122 143.185V137.185C204.39 137.185 201.999 138.237 200.117 140.219L204.467 144.351ZM207.122 143.185H208.487V137.185H207.122V143.185ZM208.487 143.185C209.619 143.185 210.723 143.65 211.881 145.16L216.643 141.51C214.581 138.82 211.835 137.185 208.487 137.185V143.185ZM211.795 145.043L252.22 203.423L257.153 200.007L216.728 141.627L211.795 145.043ZM257.687 201.715V145.015H251.687V201.715H257.687ZM257.687 145.015C257.687 144.451 257.846 144.103 258.173 143.776L253.931 139.534C252.437 141.027 251.687 142.919 251.687 145.015H257.687ZM258.25 143.696C258.596 143.324 258.921 143.185 259.412 143.185V137.185C257.242 137.185 255.328 138.026 253.853 139.614L258.25 143.696ZM259.412 143.185C259.902 143.185 260.228 143.324 260.573 143.696L264.97 139.614C263.496 138.026 261.581 137.185 259.412 137.185V143.185ZM260.73 143.853C261.103 144.199 261.242 144.524 261.242 145.015H267.242C267.242 142.846 266.401 140.931 264.813 139.457L260.73 143.853ZM261.242 145.015V207.7H267.242V145.015H261.242ZM261.242 207.7C261.242 208.748 260.894 209.577 260.076 210.355L264.208 214.705C266.19 212.823 267.242 210.432 267.242 207.7H261.242ZM260.021 210.409C259.256 211.173 258.411 211.525 257.312 211.525V217.525C259.993 217.525 262.367 216.547 264.263 214.651L260.021 210.409ZM257.312 211.525H256.052V217.525H257.312V211.525ZM256.052 211.525C255.387 211.525 254.797 211.384 254.243 211.107L251.56 216.473C252.966 217.176 254.477 217.525 256.052 217.525V211.525ZM254.39 211.185C253.739 210.813 253.253 210.378 252.887 209.89L248.087 213.49C248.981 214.682 250.105 215.647 251.413 216.395L254.39 211.185ZM252.953 209.982L212.318 151.287L207.385 154.703L248.02 213.398L252.953 209.982ZM206.852 152.995V209.8H212.852V152.995H206.852ZM206.852 209.8C206.852 210.291 206.713 210.616 206.34 210.962L210.423 215.358C212.011 213.884 212.852 211.969 212.852 209.8H206.852ZM206.26 211.039C205.934 211.365 205.586 211.525 205.022 211.525V217.525C207.118 217.525 209.01 216.775 210.503 215.281L206.26 211.039ZM295.958 211.585L297.442 208.978L295.958 211.585ZM286.508 201.82L283.834 203.179L283.847 203.206L283.861 203.232L286.508 201.82ZM286.508 172.735L283.852 171.341L283.847 171.35L283.843 171.358L286.508 172.735ZM295.958 162.865L297.442 165.472L295.958 162.865ZM324.203 162.865L322.72 165.472L324.203 162.865ZM333.653 172.735L330.997 174.129L331.001 174.138L331.006 174.147L333.653 172.735ZM333.653 201.82L336.3 203.232L336.305 203.223L336.31 203.214L333.653 201.82ZM324.203 211.585L322.72 208.978L324.203 211.585ZM318.323 204.34L316.982 201.657L316.967 201.664L316.953 201.671L318.323 204.34ZM324.833 198.04L322.272 196.478L322.258 196.501L322.244 196.524L324.833 198.04ZM324.833 176.305L322.244 177.821L322.258 177.844L322.272 177.867L324.833 176.305ZM318.323 170.11L316.953 172.779L316.996 172.801L317.039 172.821L318.323 170.11ZM301.733 170.11L303.046 172.808L303.06 172.801L303.075 172.793L301.733 170.11ZM295.328 176.305L292.739 174.789L295.328 176.305ZM295.328 198.04L292.739 199.556L295.328 198.04ZM301.733 204.34L300.363 207.009L300.377 207.016L300.392 207.023L301.733 204.34ZM310.133 212.05C305.183 212.05 300.984 210.993 297.442 208.978L294.475 214.192C299.052 216.797 304.304 218.05 310.133 218.05V212.05ZM297.442 208.978C293.885 206.954 291.134 204.118 289.155 200.408L283.861 203.232C286.363 207.922 289.912 211.596 294.475 214.192L297.442 208.978ZM289.183 200.461C287.255 196.668 286.253 192.279 286.253 187.225H280.253C280.253 193.091 281.422 198.433 283.834 203.179L289.183 200.461ZM286.253 187.225C286.253 182.17 287.255 177.825 289.174 174.112L283.843 171.358C281.421 176.045 280.253 181.36 280.253 187.225H286.253ZM289.165 174.129C291.147 170.35 293.898 167.489 297.442 165.472L294.475 160.258C289.899 162.861 286.349 166.58 283.852 171.341L289.165 174.129ZM297.442 165.472C300.984 163.457 305.183 162.4 310.133 162.4V156.4C304.304 156.4 299.052 157.653 294.475 160.258L297.442 165.472ZM310.133 162.4C315.007 162.4 319.172 163.454 322.72 165.472L325.687 160.258C321.115 157.656 315.9 156.4 310.133 156.4V162.4ZM322.72 165.472C326.264 167.489 329.014 170.35 330.997 174.129L336.31 171.341C333.812 166.58 330.263 162.861 325.687 160.258L322.72 165.472ZM331.006 174.147C332.983 177.852 334.013 182.184 334.013 187.225H340.013C340.013 181.346 338.804 176.018 336.3 171.323L331.006 174.147ZM334.013 187.225C334.013 192.264 332.983 196.64 330.997 200.426L336.31 203.214C338.804 198.46 340.013 193.106 340.013 187.225H334.013ZM331.006 200.408C329.028 204.118 326.277 206.954 322.72 208.978L325.687 214.192C330.25 211.596 333.799 207.922 336.3 203.232L331.006 200.408ZM322.72 208.978C319.172 210.996 315.007 212.05 310.133 212.05V218.05C315.9 218.05 321.115 216.794 325.687 214.192L322.72 208.978ZM310.133 209.335C313.487 209.335 316.686 208.553 319.694 207.009L316.953 201.671C314.781 202.787 312.52 203.335 310.133 203.335V209.335ZM319.665 207.023C322.905 205.403 325.485 202.866 327.422 199.556L322.244 196.524C320.822 198.954 319.061 200.617 316.982 201.657L319.665 207.023ZM327.395 199.602C329.508 196.136 330.458 191.913 330.458 187.12H324.458C324.458 191.147 323.659 194.204 322.272 196.478L327.395 199.602ZM330.458 187.12C330.458 182.387 329.504 178.202 327.395 174.743L322.272 177.867C323.663 180.148 324.458 183.173 324.458 187.12H330.458ZM327.422 174.789C325.479 171.469 322.882 168.95 319.608 167.399L317.039 172.821C319.085 173.79 320.828 175.401 322.244 177.821L327.422 174.789ZM319.694 167.441C316.686 165.897 313.487 165.115 310.133 165.115V171.115C312.52 171.115 314.781 171.663 316.953 172.779L319.694 167.441ZM310.133 165.115C306.722 165.115 303.463 165.891 300.392 167.427L303.075 172.793C305.323 171.669 307.665 171.115 310.133 171.115V165.115ZM300.421 167.412C297.219 168.97 294.671 171.489 292.739 174.789L297.917 177.821C299.346 175.381 301.068 173.77 303.046 172.808L300.421 167.412ZM292.739 174.789C290.72 178.239 289.808 182.406 289.808 187.12H295.808C295.808 183.154 296.577 180.111 297.917 177.821L292.739 174.789ZM289.808 187.12C289.808 191.894 290.716 196.099 292.739 199.556L297.917 196.524C296.58 194.241 295.808 191.166 295.808 187.12H289.808ZM292.739 199.556C294.666 202.846 297.196 205.382 300.363 207.009L303.104 201.671C301.091 200.638 299.351 198.974 297.917 196.524L292.739 199.556ZM300.392 207.023C303.463 208.559 306.722 209.335 310.133 209.335V203.335C307.665 203.335 305.323 202.781 303.075 201.657L300.392 207.023ZM357.005 213.16L359.127 211.039L357.005 213.16ZM357.005 161.395L359.127 163.516L359.166 163.477L359.204 163.436L357.005 161.395ZM363.725 161.395L361.527 163.436L361.602 163.518L361.684 163.593L363.725 161.395ZM365.195 169.27H362.195V178.321L367.601 171.062L365.195 169.27ZM385.46 160.765L383.256 162.8L383.296 162.844L383.339 162.886L385.46 160.765ZM385.46 167.38L383.425 165.176V165.176L385.46 167.38ZM372.23 171.16L373.726 173.761L373.75 173.747L373.774 173.732L372.23 171.16ZM365.195 177.88L362.69 176.23L362.195 176.981V177.88H365.195ZM363.725 213.16L361.684 210.962L361.643 210.999L361.604 211.039L363.725 213.16ZM360.365 211.525C359.801 211.525 359.453 211.365 359.127 211.039L354.884 215.281C356.377 216.775 358.269 217.525 360.365 217.525V211.525ZM359.127 211.039C358.8 210.712 358.64 210.364 358.64 209.8H352.64C352.64 211.896 353.391 213.788 354.884 215.281L359.127 211.039ZM358.64 209.8V164.755H352.64V209.8H358.64ZM358.64 164.755C358.64 164.191 358.8 163.843 359.127 163.516L354.884 159.274C353.391 160.767 352.64 162.659 352.64 164.755H358.64ZM359.204 163.436C359.55 163.064 359.875 162.925 360.365 162.925V156.925C358.196 156.925 356.281 157.766 354.807 159.354L359.204 163.436ZM360.365 162.925C360.856 162.925 361.181 163.064 361.527 163.436L365.924 159.354C364.45 157.766 362.535 156.925 360.365 156.925V162.925ZM361.684 163.593C362.056 163.939 362.195 164.264 362.195 164.755H368.195C368.195 162.586 367.354 160.671 365.767 159.197L361.684 163.593ZM362.195 164.755V169.27H368.195V164.755H362.195ZM367.601 171.062C372.148 164.957 376.845 162.4 381.68 162.4V156.4C374.335 156.4 368.043 160.423 362.789 167.478L367.601 171.062ZM381.68 162.4H382.205V156.4H381.68V162.4ZM382.205 162.4C382.767 162.4 383.029 162.554 383.256 162.8L387.665 158.73C386.211 157.156 384.303 156.4 382.205 156.4V162.4ZM383.339 162.886C383.666 163.213 383.825 163.561 383.825 164.125H389.825C389.825 162.029 389.075 160.137 387.582 158.644L383.339 162.886ZM383.825 164.125C383.825 164.687 383.671 164.949 383.425 165.176L387.495 169.584C389.069 168.131 389.825 166.223 389.825 164.125H383.825ZM383.425 165.176C383.143 165.436 382.747 165.64 381.995 165.64V171.64C384.043 171.64 385.958 171.004 387.495 169.584L383.425 165.176ZM381.995 165.64H381.47V171.64H381.995V165.64ZM381.47 165.64C377.583 165.64 373.967 166.619 370.687 168.588L373.774 173.732C376.093 172.341 378.637 171.64 381.47 171.64V165.64ZM370.735 168.559C367.503 170.418 364.821 172.994 362.69 176.23L367.701 179.53C369.35 177.026 371.358 175.122 373.726 173.761L370.735 168.559ZM362.195 177.88V209.8H368.195V177.88H362.195ZM362.195 209.8C362.195 210.291 362.056 210.616 361.684 210.962L365.767 215.358C367.354 213.884 368.195 211.969 368.195 209.8H362.195ZM361.604 211.039C361.277 211.365 360.929 211.525 360.365 211.525V217.525C362.461 217.525 364.353 216.775 365.847 215.281L361.604 211.039ZM404.236 168.64H407.236V165.64H404.236V168.64ZM395.311 168.115L393.006 170.036L393.18 170.245L393.39 170.42L395.311 168.115ZM395.731 164.86L397.572 167.228L397.707 167.124L397.828 167.005L395.731 164.86ZM410.011 150.895L412.108 153.04L412.12 153.028L412.132 153.016L410.011 150.895ZM413.161 150.58L410.856 152.501L410.943 152.605L411.039 152.701L413.161 150.58ZM413.791 160.45H410.791V163.45H413.791V160.45ZM428.596 161.605L426.474 163.726V163.726L428.596 161.605ZM428.596 167.485L430.717 169.606L430.763 169.56L430.807 169.512L428.596 167.485ZM413.791 168.64V165.64H410.791V168.64H413.791ZM415.681 205.6L414.116 208.16L414.198 208.21L414.283 208.255L415.681 205.6ZM424.816 206.02L424.088 203.11L424.02 203.126L423.953 203.147L424.816 206.02ZM425.656 205.81L425.067 202.868L424.997 202.882L424.928 202.9L425.656 205.81ZM429.541 206.86L427.419 208.981L427.47 209.032L427.523 209.08L429.541 206.86ZM428.281 213.16L429.538 215.884L429.604 215.853L429.668 215.82L428.281 213.16ZM419.566 212.05C414.847 212.05 411.869 210.977 410.08 209.36C408.348 207.794 407.236 205.265 407.236 201.19H401.236C401.236 206.355 402.678 210.756 406.056 213.81C409.377 216.813 414.064 218.05 419.566 218.05V212.05ZM407.236 201.19V168.64H401.236V201.19H407.236ZM404.236 165.64H396.781V171.64H404.236V165.64ZM396.781 165.64C396.818 165.64 396.899 165.647 397.002 165.684C397.106 165.721 397.184 165.771 397.231 165.81L393.39 170.42C394.363 171.231 395.537 171.64 396.781 171.64V165.64ZM397.615 166.194C397.654 166.241 397.705 166.32 397.742 166.423C397.779 166.526 397.786 166.607 397.786 166.645H391.786C391.786 167.888 392.195 169.062 393.006 170.036L397.615 166.194ZM397.786 166.645C397.786 166.764 397.754 166.925 397.673 167.077C397.599 167.218 397.531 167.26 397.572 167.228L393.889 162.492C392.644 163.46 391.786 164.881 391.786 166.645H397.786ZM397.828 167.005L412.108 153.04L407.913 148.75L393.633 162.715L397.828 167.005ZM412.132 153.016C412.299 152.849 412.369 152.818 412.333 152.838C412.285 152.863 412.095 152.95 411.796 152.95V146.95C410.079 146.95 408.761 147.902 407.889 148.774L412.132 153.016ZM411.796 152.95C411.693 152.95 411.51 152.929 411.3 152.831C411.087 152.733 410.94 152.601 410.856 152.501L415.465 148.659C414.529 147.537 413.221 146.95 411.796 146.95V152.95ZM411.039 152.701C411.01 152.672 410.937 152.588 410.876 152.444C410.813 152.297 410.791 152.155 410.791 152.05H416.791C416.791 150.642 416.227 149.403 415.282 148.459L411.039 152.701ZM410.791 152.05V160.45H416.791V152.05H410.791ZM413.791 163.45H425.656V157.45H413.791V163.45ZM425.656 163.45C426.131 163.45 426.322 163.574 426.474 163.726L430.717 159.484C429.329 158.096 427.56 157.45 425.656 157.45V163.45ZM426.474 163.726C426.627 163.879 426.751 164.069 426.751 164.545H432.751C432.751 162.641 432.104 160.871 430.717 159.484L426.474 163.726ZM426.751 164.545C426.751 164.9 426.657 165.16 426.384 165.458L430.807 169.512C432.074 168.13 432.751 166.43 432.751 164.545H426.751ZM426.474 165.364C426.322 165.516 426.131 165.64 425.656 165.64V171.64C427.56 171.64 429.329 170.994 430.717 169.606L426.474 165.364ZM425.656 165.64H413.791V171.64H425.656V165.64ZM410.791 168.64V200.35H416.791V168.64H410.791ZM410.791 200.35C410.791 203.257 411.415 206.509 414.116 208.16L417.245 203.04C417.336 203.096 417.231 203.096 417.086 202.694C416.929 202.259 416.791 201.516 416.791 200.35H410.791ZM414.283 208.255C416.155 209.24 418.312 209.65 420.616 209.65V203.65C418.999 203.65 417.866 203.36 417.078 202.945L414.283 208.255ZM420.616 209.65C422.32 209.65 424.01 209.394 425.678 208.893L423.953 203.147C422.821 203.486 421.711 203.65 420.616 203.65V209.65ZM425.543 208.93C425.823 208.86 426.103 208.79 426.383 208.72L424.928 202.9C424.648 202.97 424.368 203.04 424.088 203.11L425.543 208.93ZM426.244 208.752C426.344 208.732 426.556 208.705 426.916 208.705V202.705C426.295 202.705 425.667 202.748 425.067 202.868L426.244 208.752ZM426.916 208.705C427.008 208.705 427.143 208.705 427.419 208.981L431.662 204.739C430.398 203.475 428.783 202.705 426.916 202.705V208.705ZM427.523 209.08C427.625 209.173 427.652 209.229 427.661 209.249C427.67 209.27 427.696 209.335 427.696 209.485H433.696C433.696 207.598 432.96 205.915 431.559 204.64L427.523 209.08ZM427.696 209.485C427.696 209.764 427.634 209.888 427.585 209.964C427.523 210.058 427.352 210.261 426.893 210.5L429.668 215.82C430.82 215.219 431.856 214.389 432.599 213.259C433.354 212.109 433.696 210.816 433.696 209.485H427.696ZM427.023 210.436C424.697 211.51 422.222 212.05 419.566 212.05V218.05C423.069 218.05 426.404 217.33 429.538 215.884L427.023 210.436ZM449.596 207.805L447.444 209.895L447.459 209.911L447.474 209.926L449.596 207.805ZM453.586 163.285L455.281 165.76L453.586 163.285ZM480.991 163.075L479.359 165.592L479.375 165.603L479.392 165.614L480.991 163.075ZM489.601 172.735L486.899 174.039L486.903 174.048L486.908 174.058L489.601 172.735ZM491.176 189.22L489.054 187.099L489.012 187.141L488.971 187.185L491.176 189.22ZM452.116 190.585V187.585H448.753L449.135 190.926L452.116 190.585ZM457.576 202.03L455.586 204.275L457.576 202.03ZM478.156 205.285L477.428 202.375L477.417 202.377L477.406 202.38L478.156 205.285ZM484.666 202.87L483.324 200.187L484.666 202.87ZM489.496 203.605L491.523 201.394L489.496 203.605ZM488.026 210.43L489.499 213.043L489.512 213.036L489.525 213.029L488.026 210.43ZM479.941 213.895L480.775 216.777L479.941 213.895ZM483.091 182.815V185.815H486.28L486.085 182.632L483.091 182.815ZM480.361 174.205L477.864 175.869L477.882 175.895L477.899 175.92L480.361 174.205ZM474.586 169.165L473.277 171.864L473.31 171.881L473.344 171.896L474.586 169.165ZM460.516 169.165L461.757 171.896L461.791 171.881L461.824 171.864L460.516 169.165ZM454.741 174.205L457.237 175.869H457.237L454.741 174.205ZM452.116 182.815L449.121 182.632L448.926 185.815H452.116V182.815ZM469.651 212.05C461.696 212.05 455.851 209.818 451.717 205.684L447.474 209.926C453 215.452 460.525 218.05 469.651 218.05V212.05ZM451.747 205.715C447.676 201.524 445.456 195.501 445.456 187.225H439.456C439.456 196.589 441.995 204.286 447.444 209.895L451.747 205.715ZM445.456 187.225C445.456 182.63 446.295 178.455 447.938 174.663L442.433 172.277C440.436 176.885 439.456 181.88 439.456 187.225H445.456ZM447.938 174.663C449.533 170.982 451.967 168.031 455.281 165.76L451.89 160.81C447.644 163.719 444.478 167.558 442.433 172.277L447.938 174.663ZM455.281 165.76C458.466 163.577 462.499 162.4 467.551 162.4V156.4C461.542 156.4 456.265 157.813 451.89 160.81L455.281 165.76ZM467.551 162.4C472.24 162.4 476.134 163.503 479.359 165.592L482.622 160.558C478.287 157.747 473.221 156.4 467.551 156.4V162.4ZM479.392 165.614C482.691 167.691 485.181 170.481 486.899 174.039L492.302 171.431C490.1 166.869 486.85 163.219 482.589 160.536L479.392 165.614ZM486.908 174.058C488.652 177.607 489.541 181.525 489.541 185.86H495.541C495.541 180.675 494.47 175.843 492.293 171.412L486.908 174.058ZM489.541 185.86C489.541 186.424 489.381 186.772 489.054 187.099L493.297 191.341C494.79 189.848 495.541 187.956 495.541 185.86H489.541ZM488.971 187.185C488.805 187.365 488.514 187.585 487.711 187.585V193.585C489.848 193.585 491.866 192.895 493.38 191.255L488.971 187.185ZM487.711 187.585H452.116V193.585H487.711V187.585ZM449.135 190.926C449.761 196.407 451.846 200.96 455.586 204.275L459.565 199.785C457.145 197.64 455.59 194.563 455.096 190.244L449.135 190.926ZM455.586 204.275C459.379 207.637 464.482 209.125 470.491 209.125V203.125C465.439 203.125 461.932 201.882 459.565 199.785L455.586 204.275ZM470.491 209.125C473.61 209.125 476.428 208.829 478.905 208.19L477.406 202.38C475.543 202.861 473.251 203.125 470.491 203.125V209.125ZM478.883 208.195C481.339 207.581 483.715 206.7 486.007 205.553L483.324 200.187C481.416 201.14 479.452 201.869 477.428 202.375L478.883 208.195ZM486.007 205.553C486.104 205.505 486.266 205.45 486.556 205.45V199.45C485.445 199.45 484.347 199.675 483.324 200.187L486.007 205.553ZM486.556 205.45C486.911 205.45 487.171 205.544 487.468 205.816L491.523 201.394C490.14 200.126 488.44 199.45 486.556 199.45V205.45ZM487.468 205.816C487.658 205.99 487.756 206.154 487.756 206.545H493.756C493.756 204.556 493.013 202.76 491.523 201.394L487.468 205.816ZM487.756 206.545C487.756 206.635 487.8 207.097 486.526 207.831L489.525 213.029C491.891 211.663 493.756 209.535 493.756 206.545H487.756ZM486.552 207.817C483.998 209.258 481.516 210.316 479.106 211.013L480.775 216.777C483.685 215.934 486.593 214.682 489.499 213.043L486.552 207.817ZM479.106 211.013C476.819 211.675 473.698 212.05 469.651 212.05V218.05C474.003 218.05 477.742 217.655 480.775 216.777L479.106 211.013ZM486.085 182.632C485.849 178.773 484.81 175.342 482.822 172.49L477.899 175.92C479.131 177.688 479.912 179.997 480.096 182.998L486.085 182.632ZM482.857 172.541C481.036 169.811 478.694 167.737 475.827 166.434L473.344 171.896C475.097 172.693 476.605 173.979 477.864 175.869L482.857 172.541ZM475.894 166.466C473.209 165.164 470.419 164.485 467.551 164.485V170.485C469.442 170.485 471.342 170.926 473.277 171.864L475.894 166.466ZM467.551 164.485C464.682 164.485 461.892 165.164 459.207 166.466L461.824 171.864C463.759 170.926 465.659 170.485 467.551 170.485V164.485ZM459.274 166.434C456.407 167.737 454.065 169.811 452.244 172.541L457.237 175.869C458.496 173.979 460.004 172.693 461.757 171.896L459.274 166.434ZM452.244 172.541C450.348 175.385 449.356 178.797 449.121 182.632L455.11 182.998C455.295 179.973 456.053 177.645 457.237 175.869L452.244 172.541ZM452.116 185.815H483.091V179.815H452.116V185.815Z"
        fill="#333333" />
    <path
        d="M217.567 117C216.237 117 215.117 116.545 214.207 115.635C213.297 114.725 212.842 113.605 212.842 112.275V48.54C212.842 47.21 213.297 46.09 214.207 45.18C215.117 44.2 216.237 43.71 217.567 43.71H238.672C246.652 43.71 253.407 45.495 258.937 49.065C264.537 52.565 268.737 57.115 271.537 62.715C274.337 68.315 275.737 74.195 275.737 80.355C275.737 86.515 274.337 92.395 271.537 97.995C268.737 103.595 264.537 108.18 258.937 111.75C253.407 115.25 246.652 117 238.672 117H217.567ZM237.517 108.075C243.257 108.075 248.297 106.92 252.637 104.61C256.977 102.23 260.337 98.975 262.717 94.845C265.097 90.645 266.287 85.815 266.287 80.355C266.287 74.895 265.097 70.1 262.717 65.97C260.337 61.77 256.977 58.515 252.637 56.205C248.297 53.825 243.257 52.635 237.517 52.635H222.397V108.075H237.517ZM301.67 117C300.34 117 299.22 116.545 298.31 115.635C297.4 114.725 296.945 113.605 296.945 112.275V48.54C296.945 47.21 297.4 46.09 298.31 45.18C299.22 44.2 300.34 43.71 301.67 43.71H343.775C345.035 43.71 346.085 44.165 346.925 45.075C347.835 45.915 348.29 46.965 348.29 48.225C348.29 49.485 347.835 50.535 346.925 51.375C346.085 52.215 345.035 52.635 343.775 52.635H306.5V75.84H339.995C341.255 75.84 342.305 76.295 343.145 77.205C344.055 78.045 344.51 79.095 344.51 80.355C344.51 81.615 344.055 82.665 343.145 83.505C342.305 84.345 341.255 84.765 339.995 84.765H306.5V108.075H343.775C345.035 108.075 346.085 108.53 346.925 109.44C347.835 110.28 348.29 111.33 348.29 112.59C348.29 113.85 347.835 114.9 346.925 115.74C346.085 116.58 345.035 117 343.775 117H301.67ZM394.248 117.525C391.378 117.525 389.208 115.915 387.738 112.695L361.803 49.8C361.593 49.24 361.488 48.645 361.488 48.015C361.488 46.545 361.908 45.39 362.748 44.55C363.588 43.64 364.743 43.185 366.213 43.185C367.193 43.185 368.068 43.5 368.838 44.13C369.678 44.69 370.308 45.46 370.728 46.44L395.403 107.97L420.078 46.44C420.498 45.46 421.093 44.69 421.863 44.13C422.703 43.5 423.613 43.185 424.593 43.185C426.063 43.185 427.218 43.64 428.058 44.55C428.898 45.39 429.318 46.545 429.318 48.015C429.318 48.645 429.213 49.24 429.003 49.8L403.068 112.695C401.598 115.915 399.428 117.525 396.558 117.525H394.248ZM457.514 118.05C450.514 118.05 444.144 116.475 438.404 113.325C437.214 112.485 436.619 111.33 436.619 109.86C436.619 108.74 437.004 107.76 437.774 106.92C438.544 106.08 439.524 105.66 440.714 105.66C441.344 105.66 441.974 105.8 442.604 106.08C444.844 107.06 447.084 107.83 449.324 108.39C451.564 108.95 454.084 109.23 456.884 109.23C464.654 109.23 468.539 106.745 468.539 101.775C468.539 100.165 467.629 98.94 465.809 98.1C464.059 97.26 461.154 96.315 457.094 95.265C452.964 94.285 449.534 93.27 446.804 92.22C444.144 91.17 441.834 89.595 439.874 87.495C437.984 85.325 437.039 82.49 437.039 78.99C437.039 74.09 438.789 70.1 442.289 67.02C445.859 63.94 450.934 62.4 457.514 62.4C462.904 62.4 467.979 63.275 472.739 65.025C473.719 65.305 474.454 65.83 474.944 66.6C475.504 67.37 475.784 68.175 475.784 69.015C475.784 70.135 475.364 71.115 474.524 71.955C473.754 72.795 472.774 73.215 471.584 73.215C471.234 73.215 470.779 73.145 470.219 73.005C466.159 71.745 462.169 71.115 458.249 71.115C454.469 71.115 451.494 71.815 449.324 73.215C447.224 74.545 446.174 76.295 446.174 78.465C446.174 80.565 447.154 82.105 449.114 83.085C451.074 84.065 454.119 85.01 458.249 85.92C462.379 86.97 465.739 88.02 468.329 89.07C470.919 90.05 473.124 91.625 474.944 93.795C476.834 95.965 477.779 98.87 477.779 102.51C477.779 106.99 475.994 110.7 472.424 113.64C468.924 116.58 463.954 118.05 457.514 118.05Z"
        fill="#333333" />
    <path
        d="M214.207 115.635L216.329 113.514L214.207 115.635ZM214.207 45.18L216.329 47.3013L216.368 47.262L216.406 47.2214L214.207 45.18ZM258.937 49.065L257.31 51.5854L257.329 51.5973L257.347 51.609L258.937 49.065ZM271.537 62.715L268.854 64.0566H268.854L271.537 62.715ZM271.537 97.995L268.854 96.6534H268.854L271.537 97.995ZM258.937 111.75L260.542 114.285L260.55 114.28L258.937 111.75ZM252.637 104.61L254.047 107.258L254.063 107.249L254.08 107.24L252.637 104.61ZM262.717 94.845L265.317 96.3429L265.322 96.3335L265.327 96.324L262.717 94.845ZM262.717 65.97L260.107 67.449L260.113 67.4585L260.118 67.4679L262.717 65.97ZM252.637 56.205L251.195 58.8354L251.211 58.8444L251.228 58.8532L252.637 56.205ZM222.397 52.635V49.635H219.397V52.635H222.397ZM222.397 108.075H219.397V111.075H222.397V108.075ZM217.567 114C217.003 114 216.655 113.84 216.329 113.514L212.086 117.756C213.579 119.25 215.471 120 217.567 120V114ZM216.329 113.514C216.002 113.187 215.842 112.839 215.842 112.275H209.842C209.842 114.371 210.593 116.263 212.086 117.756L216.329 113.514ZM215.842 112.275V48.54H209.842V112.275H215.842ZM215.842 48.54C215.842 47.9759 216.002 47.628 216.329 47.3013L212.086 43.0587C210.593 44.552 209.842 46.4441 209.842 48.54H215.842ZM216.406 47.2214C216.752 46.8488 217.077 46.71 217.567 46.71V40.71C215.398 40.71 213.483 41.5512 212.009 43.1386L216.406 47.2214ZM217.567 46.71H238.672V40.71H217.567V46.71ZM238.672 46.71C246.199 46.71 252.359 48.3894 257.31 51.5854L260.564 46.5446C254.455 42.6006 247.106 40.71 238.672 40.71V46.71ZM257.347 51.609C262.506 54.8332 266.315 58.9779 268.854 64.0566L274.221 61.3734C271.16 55.2521 266.569 50.2968 260.527 46.521L257.347 51.609ZM268.854 64.0566C271.449 69.2472 272.737 74.6686 272.737 80.355H278.737C278.737 73.7214 277.225 67.3828 274.221 61.3734L268.854 64.0566ZM272.737 80.355C272.737 86.0414 271.449 91.4628 268.854 96.6534L274.221 99.3366C277.225 93.3272 278.737 86.9886 278.737 80.355H272.737ZM268.854 96.6534C266.312 101.738 262.496 105.924 257.325 109.22L260.55 114.28C266.579 110.436 271.163 105.452 274.221 99.3366L268.854 96.6534ZM257.333 109.215C252.379 112.351 246.209 114 238.672 114V120C247.095 120 254.436 118.149 260.542 114.285L257.333 109.215ZM238.672 114H217.567V120H238.672V114ZM237.517 111.075C243.666 111.075 249.205 109.835 254.047 107.258L251.228 101.962C247.389 104.005 242.848 105.075 237.517 105.075V111.075ZM254.08 107.24C258.882 104.607 262.651 100.968 265.317 96.3429L260.118 93.3471C258.023 96.9819 255.072 99.8533 251.195 101.98L254.08 107.24ZM265.327 96.324C267.995 91.6165 269.287 86.2643 269.287 80.355H263.287C263.287 85.3657 262.2 89.6735 260.107 93.366L265.327 96.324ZM269.287 80.355C269.287 74.4468 267.995 69.1205 265.317 64.4721L260.118 67.4679C262.199 71.0795 263.287 75.3432 263.287 80.355H269.287ZM265.327 64.491C262.661 59.7855 258.88 56.1293 254.047 53.5568L251.228 58.8532C255.074 60.9007 258.014 63.7545 260.107 67.449L265.327 64.491ZM254.08 53.5746C249.232 50.9159 243.68 49.635 237.517 49.635V55.635C242.834 55.635 247.363 56.7341 251.195 58.8354L254.08 53.5746ZM237.517 49.635H222.397V55.635H237.517V49.635ZM219.397 52.635V108.075H225.397V52.635H219.397ZM222.397 111.075H237.517V105.075H222.397V111.075ZM298.31 115.635L300.431 113.514L298.31 115.635ZM298.31 45.18L300.431 47.3013L300.47 47.262L300.508 47.2214L298.31 45.18ZM346.925 45.075L344.72 47.1098L344.802 47.198L344.89 47.2794L346.925 45.075ZM346.925 51.375L344.89 49.1706L344.846 49.2113L344.803 49.2537L346.925 51.375ZM306.5 52.635V49.635H303.5V52.635H306.5ZM306.5 75.84H303.5V78.84H306.5V75.84ZM343.145 77.205L340.94 79.2398L341.022 79.328L341.11 79.4094L343.145 77.205ZM343.145 83.505L341.11 81.3006L341.066 81.3413L341.023 81.3837L343.145 83.505ZM306.5 84.765V81.765H303.5V84.765H306.5ZM306.5 108.075H303.5V111.075H306.5V108.075ZM346.925 109.44L344.72 111.475L344.802 111.563L344.89 111.644L346.925 109.44ZM346.925 115.74L344.89 113.536L344.846 113.576L344.803 113.619L346.925 115.74ZM301.67 114C301.106 114 300.758 113.84 300.431 113.514L296.188 117.756C297.682 119.25 299.574 120 301.67 120V114ZM300.431 113.514C300.104 113.187 299.945 112.839 299.945 112.275H293.945C293.945 114.371 294.695 116.263 296.188 117.756L300.431 113.514ZM299.945 112.275V48.54H293.945V112.275H299.945ZM299.945 48.54C299.945 47.9759 300.104 47.628 300.431 47.3013L296.188 43.0587C294.695 44.552 293.945 46.4441 293.945 48.54H299.945ZM300.508 47.2214C300.854 46.8488 301.179 46.71 301.67 46.71V40.71C299.5 40.71 297.585 41.5512 296.111 43.1386L300.508 47.2214ZM301.67 46.71H343.775V40.71H301.67V46.71ZM343.775 46.71C344.214 46.71 344.459 46.8272 344.72 47.1098L349.129 43.0402C347.71 41.5028 345.855 40.71 343.775 40.71V46.71ZM344.89 47.2794C345.173 47.5403 345.29 47.7857 345.29 48.225H351.29C351.29 46.1443 350.497 44.2897 348.96 42.8706L344.89 47.2794ZM345.29 48.225C345.29 48.6643 345.173 48.9097 344.89 49.1706L348.96 53.5794C350.497 52.1603 351.29 50.3057 351.29 48.225H345.29ZM344.803 49.2537C344.563 49.4943 344.293 49.635 343.775 49.635V55.635C345.777 55.635 347.607 54.9357 349.046 53.4963L344.803 49.2537ZM343.775 49.635H306.5V55.635H343.775V49.635ZM303.5 52.635V75.84H309.5V52.635H303.5ZM306.5 78.84H339.995V72.84H306.5V78.84ZM339.995 78.84C340.434 78.84 340.679 78.9572 340.94 79.2398L345.349 75.1702C343.93 73.6328 342.075 72.84 339.995 72.84V78.84ZM341.11 79.4094C341.393 79.6703 341.51 79.9157 341.51 80.355H347.51C347.51 78.2743 346.717 76.4197 345.18 75.0006L341.11 79.4094ZM341.51 80.355C341.51 80.7943 341.393 81.0397 341.11 81.3006L345.18 85.7094C346.717 84.2903 347.51 82.4357 347.51 80.355H341.51ZM341.023 81.3837C340.783 81.6243 340.513 81.765 339.995 81.765V87.765C341.997 87.765 343.827 87.0657 345.266 85.6263L341.023 81.3837ZM339.995 81.765H306.5V87.765H339.995V81.765ZM303.5 84.765V108.075H309.5V84.765H303.5ZM306.5 111.075H343.775V105.075H306.5V111.075ZM343.775 111.075C344.214 111.075 344.459 111.192 344.72 111.475L349.129 107.405C347.71 105.868 345.855 105.075 343.775 105.075V111.075ZM344.89 111.644C345.173 111.905 345.29 112.151 345.29 112.59H351.29C351.29 110.509 350.497 108.655 348.96 107.236L344.89 111.644ZM345.29 112.59C345.29 113.029 345.173 113.275 344.89 113.536L348.96 117.944C350.497 116.525 351.29 114.671 351.29 112.59H345.29ZM344.803 113.619C344.563 113.859 344.293 114 343.775 114V120C345.777 120 347.607 119.301 349.046 117.861L344.803 113.619ZM343.775 114H301.67V120H343.775V114ZM387.738 112.695L384.964 113.839L384.986 113.89L385.009 113.941L387.738 112.695ZM361.803 49.8L358.994 50.8534L359.011 50.8988L359.029 50.9436L361.803 49.8ZM362.748 44.55L364.869 46.6713L364.911 46.6289L364.952 46.5848L362.748 44.55ZM368.838 44.13L366.938 46.4519L367.052 46.5448L367.174 46.6262L368.838 44.13ZM370.728 46.44L373.512 45.3234L373.499 45.2906L373.485 45.2582L370.728 46.44ZM395.403 107.97L392.618 109.087L395.403 116.03L398.187 109.087L395.403 107.97ZM420.078 46.44L417.32 45.2582L417.306 45.2906L417.293 45.3234L420.078 46.44ZM421.863 44.13L423.627 46.5562L423.645 46.5432L423.663 46.53L421.863 44.13ZM428.058 44.55L425.853 46.5848L425.894 46.6289L425.936 46.6713L428.058 44.55ZM429.003 49.8L431.776 50.9436L431.795 50.8988L431.812 50.8534L429.003 49.8ZM403.068 112.695L405.797 113.941L405.82 113.89L405.841 113.839L403.068 112.695ZM394.248 114.525C393.414 114.525 392.79 114.305 392.255 113.908C391.684 113.485 391.055 112.737 390.467 111.449L385.009 113.941C385.891 115.873 387.081 117.54 388.68 118.727C390.315 119.94 392.212 120.525 394.248 120.525V114.525ZM390.511 111.551L364.576 48.6563L359.029 50.9436L384.964 113.839L390.511 111.551ZM364.612 48.7466C364.535 48.5412 364.488 48.3047 364.488 48.015H358.488C358.488 48.9853 358.651 49.9388 358.994 50.8534L364.612 48.7466ZM364.488 48.015C364.488 47.1404 364.719 46.8214 364.869 46.6713L360.626 42.4287C359.097 43.9586 358.488 45.9496 358.488 48.015H364.488ZM364.952 46.5848C365.118 46.405 365.41 46.185 366.213 46.185V40.185C364.076 40.185 362.057 40.875 360.543 42.5151L364.952 46.5848ZM366.213 46.185C366.489 46.185 366.695 46.2531 366.938 46.4519L370.737 41.8081C369.44 40.7469 367.897 40.185 366.213 40.185V46.185ZM367.174 46.6262C367.502 46.8448 367.766 47.1451 367.97 47.6218L373.485 45.2582C372.849 43.7749 371.854 42.5352 370.502 41.6338L367.174 46.6262ZM367.943 47.5566L392.618 109.087L398.187 106.853L373.512 45.3234L367.943 47.5566ZM398.187 109.087L422.862 47.5566L417.293 45.3234L392.618 106.853L398.187 109.087ZM422.835 47.6217C423.068 47.0774 423.345 46.7615 423.627 46.5562L420.098 41.7038C418.841 42.6185 417.927 43.8426 417.32 45.2582L422.835 47.6217ZM423.663 46.53C424.023 46.2599 424.31 46.185 424.593 46.185V40.185C422.916 40.185 421.383 40.7401 420.063 41.73L423.663 46.53ZM424.593 46.185C425.396 46.185 425.687 46.405 425.853 46.5848L430.262 42.5151C428.748 40.875 426.73 40.185 424.593 40.185V46.185ZM425.936 46.6713C426.087 46.8214 426.318 47.1404 426.318 48.015H432.318C432.318 45.9496 431.709 43.9586 430.179 42.4287L425.936 46.6713ZM426.318 48.015C426.318 48.3047 426.271 48.5412 426.194 48.7466L431.812 50.8534C432.155 49.9388 432.318 48.9853 432.318 48.015H426.318ZM426.229 48.6563L400.294 111.551L405.841 113.839L431.776 50.9436L426.229 48.6563ZM400.339 111.449C399.751 112.737 399.121 113.485 398.55 113.908C398.015 114.305 397.392 114.525 396.558 114.525V120.525C398.594 120.525 400.49 119.94 402.125 118.727C403.724 117.54 404.915 115.873 405.797 113.941L400.339 111.449ZM396.558 114.525H394.248V120.525H396.558V114.525ZM438.404 113.325L436.673 115.776L436.812 115.874L436.96 115.955L438.404 113.325ZM437.774 106.92L439.985 108.947L437.774 106.92ZM442.604 106.08L441.385 108.821L441.393 108.825L441.401 108.828L442.604 106.08ZM465.809 98.1L464.51 100.805L464.531 100.814L464.551 100.824L465.809 98.1ZM457.094 95.265L457.845 92.3606L457.816 92.353L457.786 92.346L457.094 95.265ZM446.804 92.22L445.702 95.0105L445.714 95.0153L445.727 95.02L446.804 92.22ZM439.874 87.495L437.611 89.4653L437.645 89.5042L437.68 89.542L439.874 87.495ZM442.289 67.02L440.329 64.7485L440.318 64.7581L440.307 64.7679L442.289 67.02ZM472.739 65.025L471.703 67.8407L471.808 67.8791L471.914 67.9096L472.739 65.025ZM474.944 66.6L472.413 68.2106L472.463 68.2892L472.517 68.3645L474.944 66.6ZM474.524 71.955L472.402 69.8337L472.356 69.8798L472.312 69.9278L474.524 71.955ZM470.219 73.005L469.329 75.8702L469.41 75.8951L469.491 75.9154L470.219 73.005ZM449.324 73.215L450.929 75.7495L450.939 75.7427L450.95 75.7359L449.324 73.215ZM458.249 85.92L458.988 83.0125L458.941 83.0006L458.894 82.9903L458.249 85.92ZM468.329 89.07L467.201 91.8502L467.234 91.8634L467.267 91.8759L468.329 89.07ZM474.944 93.795L472.645 95.7228L472.663 95.7443L472.681 95.7653L474.944 93.795ZM472.424 113.64L470.516 111.324L470.505 111.333L470.494 111.343L472.424 113.64ZM457.514 115.05C450.982 115.05 445.114 113.586 439.847 110.695L436.96 115.955C443.173 119.364 450.045 121.05 457.514 121.05V115.05ZM440.134 110.874C439.749 110.602 439.619 110.366 439.619 109.86H433.619C433.619 112.294 434.678 114.368 436.673 115.776L440.134 110.874ZM439.619 109.86C439.619 109.505 439.712 109.245 439.985 108.947L435.562 104.893C434.295 106.275 433.619 107.975 433.619 109.86H439.619ZM439.985 108.947C440.159 108.757 440.322 108.66 440.714 108.66V102.66C438.725 102.66 436.928 103.403 435.562 104.893L439.985 108.947ZM440.714 108.66C440.886 108.66 441.102 108.696 441.385 108.821L443.822 103.339C442.845 102.904 441.802 102.66 440.714 102.66V108.66ZM441.401 108.828C443.786 109.872 446.184 110.697 448.596 111.3L450.051 105.48C447.983 104.963 445.901 104.248 443.806 103.332L441.401 108.828ZM448.596 111.3C451.118 111.931 453.888 112.23 456.884 112.23V106.23C454.279 106.23 452.009 105.969 450.051 105.48L448.596 111.3ZM456.884 112.23C460.992 112.23 464.588 111.59 467.241 109.893C470.123 108.05 471.539 105.188 471.539 101.775H465.539C465.539 103.332 465.012 104.197 464.008 104.839C462.776 105.627 460.545 106.23 456.884 106.23V112.23ZM471.539 101.775C471.539 100.363 471.126 99.0191 470.264 97.8598C469.431 96.7375 468.293 95.9427 467.066 95.3761L464.551 100.824C465.144 101.097 465.372 101.335 465.448 101.438C465.497 101.503 465.539 101.577 465.539 101.775H471.539ZM467.107 95.3954C465.075 94.4204 461.928 93.4167 457.845 92.3606L456.342 98.1694C460.379 99.2133 463.042 100.1 464.51 100.805L467.107 95.3954ZM457.786 92.346C453.734 91.3845 450.443 90.4056 447.88 89.42L445.727 95.02C448.624 96.1344 452.193 97.1855 456.401 98.1839L457.786 92.346ZM447.905 89.4295C445.662 88.544 443.724 87.2237 442.067 85.448L437.68 89.542C439.943 91.9663 442.626 93.796 445.702 95.0105L447.905 89.4295ZM442.136 85.5247C440.819 84.0127 440.039 81.9293 440.039 78.99H434.039C434.039 83.0508 435.148 86.6373 437.611 89.4653L442.136 85.5247ZM440.039 78.99C440.039 74.9022 441.454 71.7504 444.27 69.2721L440.307 64.7679C436.123 68.4496 434.039 73.2778 434.039 78.99H440.039ZM444.248 69.2915C447.092 66.8382 451.37 65.4 457.514 65.4V59.4C450.497 59.4 444.625 61.0418 440.329 64.7485L444.248 69.2915ZM457.514 65.4C462.573 65.4 467.295 66.2201 471.703 67.8407L473.774 62.2093C468.662 60.3299 463.234 59.4 457.514 59.4V65.4ZM471.914 67.9096C472.277 68.0133 472.363 68.1332 472.413 68.2106L477.475 64.9894C476.544 63.5268 475.16 62.5967 473.563 62.1404L471.914 67.9096ZM472.517 68.3645C472.756 68.6931 472.784 68.8919 472.784 69.015H478.784C478.784 67.4581 478.251 66.0469 477.37 64.8355L472.517 68.3645ZM472.784 69.015C472.784 69.2873 472.717 69.5184 472.402 69.8337L476.645 74.0763C478.01 72.7116 478.784 70.9827 478.784 69.015H472.784ZM472.312 69.9278C472.138 70.1176 471.975 70.215 471.584 70.215V76.215C473.572 76.215 475.369 75.4724 476.735 73.9822L472.312 69.9278ZM471.584 70.215C471.6 70.215 471.557 70.2159 471.436 70.1974C471.319 70.1794 471.158 70.1475 470.946 70.0946L469.491 75.9154C470.157 76.0818 470.882 76.215 471.584 76.215V70.215ZM471.108 70.1398C466.784 68.798 462.494 68.115 458.249 68.115V74.115C461.843 74.115 465.533 74.692 469.329 75.8702L471.108 70.1398ZM458.249 68.115C454.144 68.115 450.528 68.868 447.697 70.6941L450.95 75.7359C452.459 74.762 454.793 74.115 458.249 74.115V68.115ZM447.718 70.6805C444.899 72.4664 443.174 75.1025 443.174 78.465H449.174C449.174 77.4875 449.548 76.6236 450.929 75.7495L447.718 70.6805ZM443.174 78.465C443.174 79.9977 443.537 81.4852 444.378 82.8056C445.213 84.1187 446.404 85.0841 447.772 85.7683L450.455 80.4017C449.864 80.1059 449.584 79.8113 449.44 79.5844C449.3 79.3648 449.174 79.0323 449.174 78.465H443.174ZM447.772 85.7683C450.072 86.9184 453.411 87.9261 457.603 88.8497L458.894 82.9903C454.826 82.0939 452.075 81.2116 450.455 80.4017L447.772 85.7683ZM457.509 88.8275C461.568 89.8594 464.785 90.8705 467.201 91.8502L469.456 86.2898C466.692 85.1695 463.189 84.0806 458.988 83.0125L457.509 88.8275ZM467.267 91.8759C469.365 92.6697 471.147 93.9373 472.645 95.7228L477.242 91.8672C475.1 89.3127 472.472 87.4303 469.39 86.2641L467.267 91.8759ZM472.681 95.7653C473.98 97.2565 474.779 99.3965 474.779 102.51H480.779C480.779 98.3435 479.687 94.6735 477.206 91.8247L472.681 95.7653ZM474.779 102.51C474.779 106.061 473.42 108.933 470.516 111.324L474.331 115.956C478.567 112.467 480.779 107.919 480.779 102.51H474.779ZM470.494 111.343C467.719 113.674 463.533 115.05 457.514 115.05V121.05C464.374 121.05 470.129 119.486 474.353 115.937L470.494 111.343Z"
        fill="#333333" />
    <path
        d="M663.36 237.9C659.049 241.345 652.762 240.647 649.312 236.34L633.951 217.163C630.496 212.849 631.195 206.55 635.513 203.1L707.619 145.472C712.628 141.469 712.628 133.852 707.619 129.849L635.513 72.2213C631.195 68.7706 630.496 62.4717 633.951 58.1578L649.312 38.981C652.762 34.6738 659.049 33.9757 663.36 37.4212L767.015 120.267C769.626 122.353 771.735 125 773.184 128.011C774.632 131.022 775.385 134.32 775.385 137.66C775.385 141.001 774.632 144.299 773.184 147.31C771.735 150.321 769.626 152.967 767.015 155.054L663.36 237.9Z"
        fill="#41B883" />
    <rect x="604.415" y="10.2598" width="24.9894" height="253" rx="10" transform="rotate(17.2199 604.415 10.2598)"
        fill="#41B883" />
</svg>